<svg version="1" xmlns="http://www.w3.org/2000/svg" width="188" height="188" viewBox="0 0 141.000000 141.000000"><path d="M44.5 27.1c1.5 9.5 7.7 18 14.3 19.9 2.1.5 6.2 1 9.2 1 10 0 12.9 1.9 6.3 4-2.1.7-5.3 2.2-7.2 3.3-3.4 2-3.5 2-4.5.2-4.8-8.5-15.8-11.9-25.2-7.6-14.1 6.4-16.6 28.4-4.8 41.1 2.4 2.6 4.4 5.3 4.4 6.1.1 2.9 4.2 10.5 7.8 14.3 4.8 5 12.4 8.6 18.4 8.6 6.9 0 16.4-5.2 20.3-11.1l3-4.6 6.1.5c7.7.6 14.6-1.6 20.3-6.4 7.4-6.4 9.5-13.9 6.6-24.2-4.1-14.4-16.1-20.5-25.2-12.7-3.9 3.3-4.1 3.4-5.8 1.5-.9-1-1.9-3.6-2.2-5.8-.5-3.9-.5-4 4.6-6.7 5.5-3.1 5.9-3.6 3.5-5.6-.8-.7-2.3-2.6-3.1-4.3l-1.7-3.1-.8 3.8C88 43.2 85.3 48 84 48c-.4 0-1-2.5-1.3-5.5-.7-7.2-3.1-11.2-9.1-15.3C68.9 24.1 68.5 24 58 24c-6 0-11.6-.3-12.5-.7-1.5-.5-1.6-.1-1 3.8zM78 46c0 .5-1 1-2.2.9-2.2 0-2.2-.1-.3-.9 1.1-.5 2.1-.9 2.3-.9.1-.1.2.3.2.9zm-34 9.7c0 .8-1.2 1.3-2.9 1.3-4.4 0-7.9 3.7-10 10.5l-1.9 6-.1-4.7c-.2-7.9 3.2-13.6 9.4-16.4 2.6-1.1 3.2-1.1 4.3.3.6.9 1.2 2.3 1.2 3zm4.8-2.5c.2 1.3-.3 1.8-1.7 1.8-1.2 0-2.1-.2-2.1-.4s-.3-1.2-.6-2.1c-.5-1.3-.2-1.6 1.7-1.3 1.3.1 2.5 1.1 2.7 2zm35.6 12.9c-.2.4-1.7 1-3.2 1.4-1.5.3-4 1.7-5.4 3-1.4 1.3-2.9 2.1-3.2 1.8-1.4-1.4-.4-4.3 3.4-10.2l4.1-6.3 2.4 4.8c1.3 2.6 2.2 5.1 1.9 5.5zm-13-5.2c-2.2 3.4-2.8 3.8-4.4 2.8-1-.6-1.6-1.5-1.4-1.9.4-.7 7.2-4.6 8.2-4.8.1 0-.9 1.8-2.4 3.9zm34.6-.4c0 1.3.4 1.4 2 .5 1.8-1 2.5-.6 5 2 1.7 1.8 3 4 3 4.9 0 .9.3 2.7.6 4.1.4 1.9.3 2.2-.5 1-.6-.9-2.3-1.4-4.3-1.2-4.2.4-7.3-2.5-6.6-6.2.3-1.4.1-2.3-.3-2-.5.3-.9 0-.9-.5 0-.6-1-1.1-2.1-1.1-1.8 0-1.9-.2-.9-1.5 1.6-2 5-1.9 5 0zm-39.3 5.1c.5 1.5-2 2.4-3.7 1.4-.7-.4-.9-1.3-.5-1.9.8-1.4 3.7-1.1 4.2.5zm29.8 13.9C98 80.9 99 83 99 84.7c-.1 2.4-.2 2.5-1.1 1-.5-.9-2.8-2.6-5-3.7-2.1-1.1-3.9-2.7-3.9-3.5 0-2.4 4.8-1.8 7.5 1zm-45-.5c.8 1.3-1.3 5.1-4.1 7.3-3.5 2.7-4 7.8-1.6 14.3 2.3 6.3.5 5.8-2.9-.7-2.5-5-2.4-11.3.2-15.5 1.7-2.8 2.4-3.2 3.9-2.4 2.8 1.5 3.6 1.2 1.4-.5-1.6-1.3-1.7-1.6-.4-2.5 1.9-1.2 2.7-1.3 3.5 0zm30 3.5c3 2.9 3.5 10.4 1 12.5-1.2 1-1.5.9-1.5-.7s-.6-1.8-3.4-1.5c-2.7.3-3.7-.1-5.5-2.3-2.9-3.7-2.7-5.4.9-6.9 2.3-.9 2.7-1.5 1.8-2.4-.9-.9-.6-1.2 1.5-1.2 1.6 0 3.8 1 5.2 2.5z"/></svg>